<?xml version="1.0" standalone="no"?>
<!DOCTYPE svg PUBLIC "-//W3C//DTD SVG 20010904//EN"
 "http://www.w3.org/TR/2001/REC-SVG-20010904/DTD/svg10.dtd">
<svg version="1.0" xmlns="http://www.w3.org/2000/svg"
 width="512.000000pt" height="512.000000pt" viewBox="0 0 512.000000 512.000000"
 preserveAspectRatio="xMidYMid meet">
<metadata>
Created by potrace 1.14, written by Peter Selinger 2001-2017
</metadata>
<g transform="translate(0.000000,512.000000) scale(0.100000,-0.100000)"
fill="#000000" stroke="none">
<path d="M2475 4162 c-3 -3 -24 -6 -47 -7 -24 -1 -50 -5 -59 -9 -9 -4 -20 -6
-25 -5 -5 1 -26 -1 -46 -5 -20 -5 -54 -9 -75 -11 -21 -2 -38 -4 -38 -5 0 -1
-9 -3 -19 -5 -11 -2 -31 -7 -45 -11 -14 -4 -30 -6 -35 -5 -4 1 -19 -5 -32 -14
-13 -8 -24 -13 -24 -10 0 3 -22 -6 -50 -20 -27 -14 -50 -23 -50 -19 0 3 -7 -2
-16 -10 -8 -9 -20 -14 -25 -11 -5 4 -9 2 -9 -2 0 -5 -22 -19 -49 -32 -27 -12
-59 -32 -70 -42 -11 -10 -23 -19 -26 -19 -8 0 -66 -43 -130 -96 -27 -23 -65
-49 -84 -59 -19 -9 -61 -44 -93 -76 -32 -32 -63 -59 -68 -59 -6 0 -10 -7 -10
-15 0 -8 -5 -15 -11 -15 -5 0 -7 -4 -4 -10 3 -5 2 -10 -4 -10 -9 0 -95 -124
-101 -145 -1 -5 -11 -22 -21 -37 -10 -14 -19 -30 -19 -36 0 -5 -7 -15 -15 -22
-8 -7 -15 -19 -15 -27 0 -8 -13 -35 -30 -59 -29 -43 -51 -92 -84 -185 -15 -42
-20 -47 -52 -51 -19 -2 -37 -1 -39 3 -3 3 -134 6 -292 5 -303 -2 -315 -3 -356
-49 -21 -25 -19 -9 -22 -167 -2 -102 1 -143 12 -167 9 -18 19 -33 23 -33 12 0
24 -38 25 -83 2 -28 -5 -47 -26 -74 -16 -20 -30 -41 -30 -47 -12 -111 -12
-124 -7 -221 4 -68 26 -108 71 -131 23 -13 69 -16 231 -16 119 0 213 5 229 11
20 8 34 8 49 0 11 -6 61 -12 112 -12 88 -2 91 -3 103 -28 7 -15 14 -39 15 -53
1 -14 5 -26 9 -26 4 0 6 -14 5 -30 -1 -17 1 -30 6 -30 4 0 7 -3 6 -7 -4 -14
13 -53 23 -53 5 0 9 -4 9 -8 0 -5 18 -28 40 -51 22 -23 40 -50 40 -59 0 -9 22
-46 49 -82 27 -36 48 -66 46 -68 -2 -2 15 -22 36 -45 21 -23 41 -50 45 -59 3
-10 9 -18 13 -18 5 0 29 -21 55 -46 25 -26 46 -43 46 -38 0 5 4 4 8 -2 4 -6
45 -39 92 -73 47 -34 101 -74 121 -89 21 -15 34 -32 32 -42 -2 -8 8 -34 23
-57 28 -43 49 -52 129 -59 22 -2 56 -5 75 -8 19 -3 57 -7 83 -9 27 -2 51 -7
55 -13 4 -6 25 -19 47 -29 33 -16 67 -20 190 -22 83 -1 217 -4 299 -7 128 -3
158 -1 205 16 31 10 67 20 81 22 14 1 39 9 55 18 17 8 43 15 58 14 16 -1 31 2
33 6 3 4 13 8 23 8 9 0 35 8 57 19 21 10 64 30 94 44 117 53 146 68 185 90 78
45 90 51 98 49 4 -1 7 2 7 8 0 8 51 40 65 40 3 0 5 -6 5 -14 0 -28 58 -189 71
-197 8 -5 10 -9 4 -9 -5 0 -3 -5 5 -10 17 -10 50 14 50 37 0 21 25 43 49 43
12 0 21 5 21 10 0 6 7 10 16 10 37 0 3 35 -76 77 -47 24 -86 44 -87 44 -2 -1
-2 0 -1 2 1 1 -4 12 -10 23 -9 17 -9 24 3 34 8 7 15 20 15 30 0 9 21 32 48 51
26 18 61 47 78 64 31 31 69 85 59 85 -3 0 10 17 28 37 57 62 89 103 82 103 -4
0 -2 6 4 14 10 12 44 113 43 126 -1 3 12 28 28 56 16 29 26 55 23 58 -4 3 -2
6 4 6 9 0 14 11 28 63 2 4 4 10 5 15 1 4 2 10 1 14 0 3 26 7 59 7 38 0 68 6
85 17 14 9 25 12 25 6 0 -5 10 -13 23 -16 28 -9 386 -11 394 -3 3 4 14 2 24
-4 13 -6 19 -6 19 1 0 5 3 10 8 9 21 -3 50 16 70 46 19 27 24 49 26 115 2 75
0 86 -26 126 -15 25 -35 47 -43 50 -8 4 -15 10 -15 15 0 5 -8 17 -17 27 -10
10 -29 33 -43 52 -14 18 -31 39 -38 47 -12 11 -12 16 0 31 22 29 101 107 130
128 39 30 54 78 52 169 -1 85 -8 112 -33 133 -45 35 -73 39 -296 35 -121 -2
-231 -3 -245 -4 -14 0 -70 2 -124 4 l-100 3 -22 35 c-12 19 -20 37 -17 42 2 4
-1 7 -6 7 -6 0 -11 7 -11 15 0 8 -13 37 -30 65 -16 28 -30 55 -30 60 0 4 -4
10 -9 12 -5 2 -11 10 -13 18 -2 8 -8 19 -14 25 -6 5 -33 37 -60 70 -118 144
-179 205 -206 206 -49 3 -71 -1 -89 -17 -24 -21 -43 -89 -35 -123 4 -14 8 -31
9 -38 3 -13 67 -78 83 -84 12 -5 74 -94 74 -107 0 -5 9 -17 20 -27 22 -20 43
-82 45 -132 l2 -33 -31 19 c-35 20 -108 20 -133 -1 -12 -9 -72 -13 -249 -13
-229 0 -233 0 -245 22 -10 19 -6 28 42 82 61 70 72 103 52 158 -8 21 -16 45
-18 55 -12 52 -82 138 -112 138 -7 0 -13 3 -13 8 0 4 22 8 49 9 73 2 148 28
203 70 57 43 85 94 94 167 3 27 7 53 10 57 2 4 0 10 -6 14 -5 3 -10 15 -10 25
0 10 -5 31 -12 47 -6 15 -12 32 -12 36 -1 4 -8 12 -16 17 -8 5 -10 10 -5 10 6
0 -10 18 -35 40 -56 50 -182 112 -255 126 -5 1 -12 3 -15 4 -9 3 -34 8 -80 15
-24 4 -48 9 -52 11 -4 3 -38 7 -75 9 -121 7 -238 17 -243 20 -3 2 -12 0 -19
-4 -7 -5 -30 -5 -51 -1 -22 4 -42 5 -45 2z m385 -618 c0 5 6 3 13 -3 8 -6 17
-8 20 -4 4 3 7 1 7 -5 0 -15 -66 -16 -76 -1 -3 6 0 15 7 20 8 5 17 3 21 -4 4
-7 8 -8 8 -3z m-643 -161 c-8 -10 -17 -27 -19 -38 -1 -11 -7 -23 -13 -27 -7
-5 -7 -8 0 -8 6 0 10 -17 9 -37 -1 -21 5 -48 13 -60 8 -12 15 -26 15 -30 0
-14 40 -88 52 -95 6 -4 8 -8 4 -8 -5 0 2 -10 13 -21 13 -13 17 -24 11 -28 -12
-7 -470 -7 -477 1 -3 3 4 16 15 30 10 14 17 27 15 30 -3 2 16 25 43 50 26 25
69 68 96 97 27 28 55 51 62 51 8 0 14 4 14 10 0 9 89 75 102 75 4 0 13 6 20
13 6 6 19 12 27 12 12 0 12 -3 -2 -17z m656 -927 c-15 -22 -31 -42 -35 -44 -4
-2 -3 -13 1 -25 10 -29 5 -157 -6 -168 -11 -11 -13 0 -16 96 -2 61 2 94 18
155 2 8 4 16 5 18 2 1 3 6 4 11 0 5 12 24 26 43 l25 33 3 -39 c3 -29 -4 -48
-25 -80z m-927 48 c-4 -15 -14 -33 -22 -41 -13 -13 -17 -13 -33 6 -16 18 -19
35 -12 59 1 1 17 2 37 2 34 0 36 -2 30 -26z m4 -449 c0 3 10 0 23 -6 12 -7 38
-12 57 -11 63 4 65 -1 69 -148 2 -71 -10 -109 -40 -128 -19 -12 -26 -10 -63
19 -52 41 -80 73 -154 174 l-59 80 46 8 c25 4 53 15 60 22 13 13 18 13 38 0
13 -9 23 -13 23 -10z m950 4 c0 -5 7 -9 15 -9 8 0 15 -3 15 -7 0 -6 196 -8
345 -3 11 0 27 0 35 -1 8 -1 36 1 63 5 28 4 47 3 47 -3 0 -17 -23 -61 -31 -61
-4 0 -11 -9 -14 -20 -9 -29 -135 -151 -179 -175 -21 -11 -56 -37 -77 -58 -22
-21 -44 -35 -49 -32 -6 4 -10 2 -10 -3 0 -12 -101 -63 -111 -56 -5 3 -9 0 -9
-6 0 -6 -5 -8 -10 -5 -6 4 -17 1 -25 -5 -12 -10 -16 -9 -19 1 -9 30 -13 69 -6
69 4 0 3 24 -1 54 -5 29 -11 69 -13 87 -3 19 -5 34 -6 34 -1 0 -3 9 -5 20 -2
11 -7 36 -11 55 -11 51 -11 53 3 80 7 14 13 32 13 42 0 11 6 15 20 11 11 -3
20 -9 20 -14z m-413 -398 c4 -15 2 -26 -5 -29 -7 -2 -10 -7 -7 -12 7 -12 -23
-40 -38 -35 -7 2 -24 6 -39 9 l-28 6 42 61 c39 57 42 60 55 43 8 -11 17 -30
20 -43z"/>
<path d="M930 1940 c-30 -16 -101 -43 -115 -43 -8 0 -16 -4 -16 -9 -7 -46 7
-69 36 -58 33 12 39 -2 15 -33 -24 -30 -25 -41 -5 -61 13 -13 20 -13 35 -3 11
6 20 18 20 25 0 10 6 12 18 7 46 -20 96 11 88 54 -8 47 -43 131 -54 130 -4 0
-14 -4 -22 -9z m15 -107 c-7 -17 -8 -17 -15 2 -9 24 -2 41 12 27 6 -6 7 -19 3
-29z"/>
<path d="M4172 1902 c-24 -3 -36 -11 -48 -34 -16 -31 -16 -31 22 -65 22 -19
54 -47 71 -64 18 -16 37 -29 42 -29 10 0 22 43 19 70 -3 36 3 51 25 59 28 11
36 61 9 62 -9 0 -37 1 -62 2 -25 1 -60 1 -78 -1z m53 -72 c3 -5 2 -10 -4 -10
-5 0 -13 5 -16 10 -3 6 -2 10 4 10 5 0 13 -4 16 -10z"/>
<path d="M963 1722 c-79 -41 -89 -53 -71 -85 7 -12 13 -24 13 -27 4 -18 30
-60 37 -60 5 0 7 -4 3 -9 -3 -6 3 -9 14 -8 34 2 33 66 -2 88 -5 4 -5 9 2 13 5
4 17 -7 26 -24 16 -30 30 -36 52 -22 8 5 6 17 -7 45 -10 20 -15 37 -11 37 4 0
15 -16 24 -35 17 -36 31 -42 57 -25 12 7 9 19 -20 75 -19 37 -37 68 -40 70 -3
2 -37 -13 -77 -33z"/>
<path d="M4056 1709 c-26 -24 -37 -43 -33 -53 4 -9 3 -16 -2 -16 -13 0 0 -52
18 -71 31 -31 74 -46 109 -35 17 5 32 15 32 22 0 8 4 14 9 14 9 0 22 28 27 59
2 8 10 19 19 24 14 7 10 13 -22 38 -21 15 -46 29 -55 29 -9 0 -19 4 -22 9 -14
22 -43 15 -80 -20z m55 -57 c-7 -14 -5 -21 9 -30 14 -9 20 -8 23 1 2 7 8 9 12
5 4 -3 3 -13 -2 -22 -7 -13 -12 -13 -45 2 -31 15 -35 20 -27 40 4 12 15 22 24
22 12 0 13 -4 6 -18z"/>
<path d="M1078 1560 c-30 -12 -68 -43 -68 -55 0 -7 -5 -15 -10 -17 -17 -5 15
-71 44 -93 14 -11 26 -28 26 -38 0 -16 26 -21 40 -7 3 3 24 18 48 34 23 16 42
34 43 40 0 6 3 23 5 39 3 15 0 27 -6 27 -6 0 -9 4 -6 9 4 5 -7 22 -23 37 -28
26 -65 36 -93 24z m66 -73 c16 -12 16 -14 2 -26 -11 -9 -16 -10 -16 -2 0 14
-47 15 -55 1 -3 -5 -1 -10 5 -10 6 0 8 -5 4 -11 -5 -8 -10 -6 -16 5 -7 13 -5
23 8 37 20 22 43 24 68 6z"/>
<path d="M3962 1556 c-28 -36 -17 -57 49 -95 83 -49 77 -48 99 -25 l20 20 -22
21 c-13 11 -40 30 -60 41 -21 10 -36 21 -33 23 2 2 -7 9 -20 16 -18 8 -27 8
-33 -1z"/>
<path d="M3845 1400 c-9 -10 -15 -23 -14 -28 6 -16 114 -100 133 -104 10 -2
23 6 30 17 6 11 17 24 24 28 19 13 42 64 36 81 -10 25 -27 19 -58 -20 -26 -33
-30 -35 -41 -20 -7 9 -17 16 -23 16 -6 0 -19 10 -29 23 -24 29 -37 30 -58 7z"/>
<path d="M1236 1395 c-8 -8 -18 -15 -22 -15 -4 0 -20 -13 -36 -30 -15 -16 -32
-30 -37 -30 -19 0 -19 -29 -1 -51 17 -19 22 -20 37 -8 10 8 26 21 37 29 10 8
31 27 47 42 15 14 30 23 33 20 13 -12 5 15 -10 36 -18 26 -27 27 -48 7z"/>
<path d="M1259 1280 c-33 -26 -36 -34 -34 -72 2 -23 8 -44 14 -46 6 -2 11 -9
11 -15 0 -15 56 -41 87 -41 25 0 73 33 73 51 0 7 5 13 10 13 13 0 7 58 -9 87
-14 27 -60 53 -93 53 -13 0 -40 -13 -59 -30z m100 -48 c13 -24 -18 -66 -45
-60 -26 5 -30 36 -7 58 23 24 40 25 52 2z"/>
<path d="M1421 1113 c-38 -53 -47 -72 -40 -85 13 -24 46 -23 59 3 15 26 20 21
26 -27 6 -50 64 -103 64 -59 0 8 5 15 10 15 6 0 10 5 10 10 0 6 7 18 15 28 9
9 27 31 40 48 24 30 24 32 6 48 -23 21 -33 20 -55 -5 -22 -26 -33 -14 -30 33
2 32 -17 57 -43 58 -7 0 -35 -30 -62 -67z"/>
<path d="M3567 1135 c-14 -10 -18 -24 -16 -52 2 -21 8 -41 13 -45 6 -4 8 -9 5
-12 -3 -3 -20 8 -39 24 -41 35 -38 35 -69 11 l-24 -18 21 -24 c12 -12 22 -19
22 -13 0 5 4 4 8 -1 4 -6 23 -22 42 -35 19 -13 41 -30 48 -37 11 -11 19 -9 42
9 30 24 31 38 11 108 -30 106 -32 110 -64 85z"/>
<path d="M1721 1048 c-12 -10 -26 -16 -31 -13 -6 3 -10 2 -10 -3 0 -6 -30 -34
-66 -63 l-65 -54 22 -18 c15 -12 31 -16 49 -12 26 6 41 -7 44 -38 1 -11 29
-26 38 -21 4 3 8 0 8 -7 0 -31 21 11 30 61 21 105 21 118 2 129 -17 11 -18 10
23 15 6 1 11 5 13 9 10 31 -29 42 -57 15z m-39 -120 c-7 -7 -12 -8 -12 -2 0
14 12 26 19 19 2 -3 -1 -11 -7 -17z"/>
<path d="M3375 1009 c-4 -5 -11 -7 -16 -3 -5 3 -23 -9 -39 -26 -39 -42 -41
-93 -5 -133 14 -15 31 -27 38 -28 7 0 21 -2 31 -4 11 -2 25 -1 30 3 6 4 13 7
16 7 15 2 50 32 50 42 0 7 4 13 9 13 8 0 0 60 -13 91 -12 29 -89 58 -101 38z
m55 -100 c0 -3 -6 -14 -14 -25 -12 -15 -18 -17 -33 -7 -10 6 -17 16 -15 22 1
6 -2 11 -7 11 -17 0 -5 33 15 41 13 5 24 0 36 -15 10 -11 18 -24 18 -27z"/>
<path d="M1812 919 c-12 -22 -19 -45 -16 -50 3 -5 1 -9 -3 -9 -5 0 -14 -14
-21 -32 -10 -27 -9 -33 6 -44 9 -7 22 -14 27 -14 6 0 21 -6 35 -13 49 -26 68
-26 74 -3 6 21 -27 57 -49 53 -16 -3 -7 62 14 102 14 26 14 38 -1 38 -7 0 -20
4 -28 7 -12 5 -22 -5 -38 -35z"/>
<path d="M3151 910 c-42 -21 -54 -42 -46 -80 4 -20 13 -30 25 -30 10 0 22 -5
26 -12 4 -7 3 -8 -4 -4 -6 3 -16 -2 -21 -12 -23 -44 91 -56 139 -15 22 20 27
72 8 91 -7 7 -21 12 -32 12 -21 1 -20 1 1 13 33 18 11 42 -47 51 -8 2 -30 -5
-49 -14z m65 -49 c-3 -5 -15 -7 -26 -4 -28 7 -25 13 6 13 14 0 23 -4 20 -9z
m4 -71 c12 -8 11 -10 -7 -10 -13 0 -23 5 -23 10 0 13 11 13 30 0z"/>
<path d="M1989 888 c-1 -7 -1 -16 0 -20 0 -5 -3 -8 -7 -8 -4 0 -9 -12 -10 -26
-1 -14 -5 -31 -9 -37 -4 -7 -9 -23 -11 -37 -2 -13 -9 -31 -15 -39 -10 -12 -9
-14 5 -9 9 4 19 4 22 0 17 -16 35 -8 41 19 8 35 22 29 41 -17 9 -22 23 -36 40
-40 35 -9 34 -10 68 116 3 8 5 15 6 15 1 0 3 10 6 21 3 20 -16 33 -48 34 -7 0
-23 -41 -20 -52 1 -5 -2 -8 -7 -8 -7 0 -21 21 -25 40 -5 20 -29 50 -36 45 -5
-3 -11 -1 -15 5 -9 14 -25 13 -26 -2z"/>
<path d="M2225 867 c-14 -11 -15 -16 -5 -22 11 -7 10 -10 -5 -15 -10 -4 -20
-17 -22 -31 -2 -13 -5 -35 -7 -49 -2 -14 -4 -25 -6 -25 -1 0 -3 -17 -5 -37 -2
-37 -1 -38 30 -38 32 0 33 1 44 60 7 33 9 64 6 69 -3 5 -1 12 5 16 5 3 10 13
10 21 0 8 -4 13 -9 9 -5 -3 -12 -2 -15 3 -2 4 9 14 27 22 28 12 29 14 11 21
-28 11 -38 10 -59 -4z"/>
<path d="M3008 859 c-15 -9 -16 -13 -2 -51 8 -23 12 -48 10 -55 -3 -7 -1 -13
4 -13 6 0 9 -3 9 -7 -1 -5 0 -11 1 -15 1 -5 3 -13 4 -20 1 -14 31 -15 58 -3
14 5 15 11 8 25 -5 10 -11 35 -12 54 -2 20 -6 36 -9 36 -4 0 -9 14 -12 30 -7
32 -27 38 -59 19z"/>
<path d="M2922 838 c-24 -6 -31 -12 -24 -21 11 -14 12 -47 1 -47 -4 0 -14 6
-21 13 -24 24 -58 38 -78 32 -17 -6 -19 -13 -14 -53 3 -26 7 -56 8 -68 1 -11
6 -25 10 -32 4 -7 4 -16 1 -22 -8 -12 35 -13 54 -1 9 6 11 18 7 35 -5 19 -3
26 9 26 8 0 15 -4 15 -9 0 -18 52 -43 76 -37 27 7 31 32 14 82 -5 16 -11 46
-13 67 -3 21 -6 39 -8 41 -2 2 -19 -1 -37 -6z"/>
<path d="M2716 811 c-3 -4 -32 -7 -65 -6 l-61 1 -1 -35 c-1 -20 0 -40 1 -46 1
-5 3 -30 5 -55 2 -25 4 -48 4 -52 1 -9 81 -8 81 1 0 4 14 5 32 3 22 -3 35 0
44 13 22 29 1 44 -53 38 -43 -4 -46 -3 -33 12 10 13 15 13 21 3 6 -8 9 -9 9
-2 0 6 8 11 18 10 18 -1 22 4 22 29 0 11 -12 15 -42 16 -25 1 -32 3 -18 6 63
10 70 13 70 37 0 23 -25 43 -34 27z"/>
<path d="M2392 800 c-4 -3 -7 -11 -6 -17 1 -7 2 -17 3 -23 0 -5 12 -10 26 -10
27 0 26 2 27 -97 0 -38 3 -43 24 -43 31 0 39 16 39 75 0 48 1 50 30 55 24 4
31 11 33 34 3 22 0 27 -11 23 -8 -3 -18 -3 -22 1 -8 8 -132 10 -143 2z"/>
</g>
</svg>
